<?xml version="1.0" encoding="UTF-8"?>
<svg version="1.1" xmlns="http://www.w3.org/2000/svg" width="800" height="800">
<path d="M0 0 C0.99634669 -0.00205263 1.99269338 -0.00410527 3.01923239 -0.0062201 C6.36655054 -0.01188625 9.7138275 -0.01043332 13.0611496 -0.00901413 C15.48188369 -0.01159799 17.90261735 -0.0146112 20.32335043 -0.01801753 C26.28423695 -0.02524189 32.24510964 -0.02779004 38.20599919 -0.02834659 C45.34682698 -0.02926129 52.48764651 -0.03593203 59.62847074 -0.04269341 C76.88705168 -0.05874505 94.14563173 -0.06465581 111.4042188 -0.06944216 C119.57087977 -0.07177901 127.73754004 -0.07538177 135.90420047 -0.07913754 C163.86690878 -0.09197249 191.82961669 -0.10269158 219.79232788 -0.10614014 C221.54731388 -0.10636177 223.30229988 -0.10658355 225.05728588 -0.10680549 C226.81647863 -0.10702613 228.57567138 -0.10724661 230.33486414 -0.10746694 C233.86402798 -0.10790949 237.39319181 -0.1083566 240.92235565 -0.10880661 C241.79738157 -0.108916 242.67240748 -0.10902539 243.57394933 -0.1091381 C271.94139702 -0.11276806 300.30881915 -0.12868609 328.67625705 -0.15199697 C358.67735219 -0.17660517 388.67843272 -0.19031344 418.67953825 -0.19150805 C421.97433949 -0.1916795 425.26914072 -0.19189493 428.56394196 -0.19214249 C429.37519759 -0.19219826 430.18645323 -0.19225402 431.02229236 -0.19231148 C444.06544562 -0.19346108 457.1085726 -0.20447536 470.15171698 -0.21902954 C483.26764059 -0.23341159 496.38353059 -0.23662189 509.49945992 -0.22858956 C517.28596081 -0.22414132 525.07235304 -0.22796158 532.8588396 -0.24382807 C538.68148997 -0.25476072 544.5040593 -0.24991177 550.32671207 -0.2390562 C552.6760154 -0.23709944 555.02532969 -0.24017661 557.37461764 -0.24890056 C573.02465911 -0.30331964 587.15557071 0.7350536 602.06005096 5.88142776 C602.81117157 6.1381929 603.56229218 6.39495804 604.33617401 6.65950394 C621.08198816 12.56467225 635.2057997 21.87534448 647.99755096 34.13142776 C648.75680878 34.82752151 649.51606659 35.52361526 650.29833221 36.24080276 C656.58715135 42.19291483 661.31831159 48.9087382 665.99755096 56.13142776 C666.83286346 57.38246292 666.83286346 57.38246292 667.68505096 58.65877151 C678.35962156 75.36558643 684.16689314 96.40652602 684.12897873 116.1338768 C684.13205768 117.62839683 684.13205768 117.62839683 684.13519883 119.15310919 C684.14086498 122.50042734 684.13941205 125.8477043 684.13799286 129.1950264 C684.14057672 131.61576049 684.14358993 134.03649416 684.14699626 136.45722723 C684.15422061 142.41811375 684.15676877 148.37898644 684.15732532 154.33987599 C684.15824002 161.48070378 684.16491076 168.62152331 684.17167214 175.76234754 C684.18772378 193.02092848 684.19363454 210.27950853 684.19842089 227.5380956 C684.20075774 235.70475657 684.2043605 243.87141684 684.20811627 252.03807727 C684.22095122 280.00078558 684.2316703 307.96349349 684.23511887 335.92620468 C684.2353405 337.68119068 684.23556228 339.43617668 684.23578422 341.19116268 C684.23600486 342.95035543 684.23622534 344.70954819 684.23644567 346.46874094 C684.23688821 349.99790478 684.23733533 353.52706862 684.23778534 357.05623245 C684.23789473 357.93125837 684.23800412 358.80628428 684.23811683 359.70782613 C684.24174679 388.07527382 684.25766482 416.44269595 684.2809757 444.81013385 C684.3055839 474.81122899 684.31929217 504.81230952 684.32048678 534.81341505 C684.32065823 538.10821629 684.32087366 541.40301752 684.32112122 544.69781876 C684.32117698 545.50907439 684.32123275 546.32033003 684.32129021 547.15616916 C684.32243981 560.19932242 684.33345409 573.2424494 684.34800827 586.28559379 C684.36239032 599.40151739 684.36560062 612.51740739 684.35756829 625.63333672 C684.35312005 633.41983761 684.35694031 641.20622984 684.3728068 648.9927164 C684.38373945 654.81536677 684.3788905 660.6379361 684.36803493 666.46058887 C684.36607817 668.8098922 684.36915534 671.15920649 684.37787929 673.50849444 C684.43229837 689.15853591 683.39392513 703.28944751 678.24755096 718.19392776 C677.99078583 718.94504837 677.73402069 719.69616898 677.46947479 720.47005081 C671.56430648 737.21586496 662.25363425 751.3396765 649.99755096 764.13142776 C649.30145721 764.89068558 648.60536346 765.64994339 647.88817596 766.43220901 C641.9360639 772.72102815 635.22024053 777.45218839 627.99755096 782.13142776 C627.16352753 782.68830276 626.32950409 783.24517776 625.47020721 783.81892776 C608.7633923 794.49349836 587.7224527 800.30076994 567.99510193 800.26285553 C566.99875524 800.26490816 566.00240855 800.2669608 564.97586954 800.26907563 C561.62855139 800.27474178 558.28127443 800.27328885 554.93395233 800.27186966 C552.51321824 800.27445352 550.09248457 800.27746673 547.6717515 800.28087306 C541.71086498 800.28809742 535.74999229 800.29064557 529.78910274 800.29120212 C522.64827495 800.29211682 515.50745542 800.29878756 508.36663119 800.30554894 C491.10805025 800.32160058 473.8494702 800.32751134 456.59088313 800.33229769 C448.42422216 800.33463454 440.25756189 800.3382373 432.09090146 800.34199307 C404.12819315 800.35482802 376.16548524 800.3655471 348.20277405 800.36899567 C346.44778805 800.3692173 344.69280205 800.36943908 342.93781605 800.36966102 C341.1786233 800.36988166 339.41943054 800.37010214 337.66023779 800.37032247 C334.13107395 800.37076501 330.60191011 800.37121213 327.07274628 800.37166214 C326.19772036 800.37177153 325.32269445 800.37188092 324.4211526 800.37199363 C296.05370491 800.37562359 267.68628278 800.39154162 239.31884488 800.4148525 C209.31774974 800.4394607 179.3166692 800.45316897 149.31556368 800.45436358 C146.02076244 800.45453503 142.72596121 800.45475046 139.43115997 800.45499802 C138.61990434 800.45505379 137.8086487 800.45510955 136.97280956 800.45516701 C123.92965631 800.45631661 110.88652933 800.46733089 97.84338494 800.48188507 C84.72746134 800.49626712 71.61157134 800.49947742 58.49564201 800.49144509 C50.70914112 800.48699685 42.92274889 800.49081711 35.13626233 800.5066836 C29.31361196 800.51761625 23.49104263 800.5127673 17.66838986 800.50191173 C15.31908653 800.49995497 12.96977224 800.50303214 10.62048429 800.51175609 C-5.02955718 800.56617517 -19.16046878 799.52780193 -34.06494904 794.38142776 C-34.81606964 794.12466263 -35.56719025 793.86789749 -36.34107208 793.60335159 C-53.08688623 787.69818328 -67.21069777 778.38751105 -80.00244904 766.13142776 C-80.76170685 765.43533401 -81.52096466 764.73924026 -82.30323029 764.02205276 C-88.59204942 758.0699407 -93.32320966 751.35411733 -98.00244904 744.13142776 C-98.55932404 743.29740433 -99.11619904 742.46338089 -99.68994904 741.60408401 C-110.36451963 724.8972691 -116.17179121 703.8563295 -116.1338768 684.12897873 C-116.13592943 683.13263204 -116.13798207 682.13628535 -116.1400969 681.10974634 C-116.14576305 677.76242819 -116.14431012 674.41515123 -116.14289093 671.06782913 C-116.14547479 668.64709504 -116.148488 666.22636137 -116.15189433 663.8056283 C-116.15911869 657.84474178 -116.16166684 651.88386909 -116.16222339 645.92297954 C-116.16313809 638.78215175 -116.16980883 631.64133222 -116.17657021 624.50050799 C-116.19262185 607.24192705 -116.19853261 589.983347 -116.20331896 572.72475993 C-116.20565581 564.55809896 -116.20925857 556.39143869 -116.21301434 548.22477826 C-116.22584929 520.26206995 -116.23656838 492.29936204 -116.24001694 464.33665085 C-116.24023857 462.58166485 -116.24046035 460.82667885 -116.24068229 459.07169285 C-116.24090293 457.3125001 -116.24112341 455.55330734 -116.24134374 453.79411459 C-116.24178629 450.26495075 -116.2422334 446.73578691 -116.24268341 443.20662308 C-116.2427928 442.33159716 -116.24290219 441.45657125 -116.2430149 440.5550294 C-116.24664486 412.18758171 -116.26256289 383.82015958 -116.28587377 355.45272168 C-116.31048197 325.45162654 -116.32419024 295.45054601 -116.32538486 265.44944048 C-116.32555631 262.15463924 -116.32577173 258.85983801 -116.32601929 255.56503677 C-116.32607506 254.75378114 -116.32613082 253.9425255 -116.32618828 253.10668636 C-116.32733788 240.06353311 -116.33835216 227.02040613 -116.35290634 213.97726174 C-116.3672884 200.86133814 -116.37049869 187.74544814 -116.36246637 174.62951881 C-116.35801812 166.84301792 -116.36183838 159.05662569 -116.37770487 151.27013913 C-116.38863752 145.44748876 -116.38378857 139.62491943 -116.372933 133.80226666 C-116.37097624 131.45296333 -116.37405341 129.10364904 -116.38277736 126.75436109 C-116.43719644 111.10431962 -115.3988232 96.97340802 -110.25244904 82.06892776 C-109.9956839 81.31780716 -109.73891876 80.56668655 -109.47437286 79.79280472 C-103.56920455 63.04699057 -94.25853232 48.92317903 -82.00244904 36.13142776 C-81.30635529 35.37216995 -80.61026154 34.61291214 -79.89307404 33.83064651 C-73.94096197 27.54182738 -67.2251386 22.81066714 -60.00244904 18.13142776 C-59.1684256 17.57455276 -58.33440216 17.01767776 -57.47510529 16.44392776 C-40.76829037 5.76935717 -19.72735078 -0.03791441 0 0 Z " fill="#37B5FE" transform="translate(116.00244903564453,-0.13142776489257813)"/>
<path d="M0 0 C3.44731257 2.89113975 6.7484295 5.8915444 10 9 C10.6496875 9.58652344 11.299375 10.17304688 11.96875 10.77734375 C48.70965755 45.18430021 60.64851908 102.17555053 62.31834412 150.39878845 C63.85862588 207.060602 54.31052043 270.81765887 14.10571289 313.80322266 C-5.86591359 334.63614969 -32.86073111 348.47542967 -62.0078125 349.25 C-64.56759474 349.28186858 -67.12753849 349.30261222 -69.6875 349.3125 C-70.89865479 349.31805908 -72.10980957 349.32361816 -73.35766602 349.3293457 C-84.23660309 349.24282299 -94.86857286 347.99410206 -105.3125 344.875 C-106.37343872 344.55849487 -106.37343872 344.55849487 -107.45581055 344.2355957 C-124.35767739 338.91543635 -139.27237227 329.20716712 -152 317 C-152.845625 316.195625 -153.69125 315.39125 -154.5625 314.5625 C-155.366875 313.716875 -156.17125 312.87125 -157 312 C-157.64195312 311.34128906 -158.28390625 310.68257812 -158.9453125 310.00390625 C-173.79077816 294.25322927 -182.9202557 275.23422188 -190 255 C-190.44279297 253.77410156 -190.44279297 253.77410156 -190.89453125 252.5234375 C-191.65144523 250.36198261 -192.33957133 248.1929151 -193 246 C-193.45826172 244.48212891 -193.45826172 244.48212891 -193.92578125 242.93359375 C-212.36354194 178.08108415 -207.68293487 97.4106653 -174.921875 37.953125 C-170.61276114 30.45422296 -165.54158033 23.62668366 -160 17 C-159.5359375 16.44489746 -159.071875 15.88979492 -158.59375 15.31787109 C-118.83637323 -31.48458061 -48.10819079 -38.88656361 0 0 Z " fill="#000001" transform="translate(507,247)"/>
<path d="M0 0 C4.53289312 3.34602613 8.65172411 6.97426506 12.640625 10.94921875 C13.56101562 11.83480469 13.56101562 11.83480469 14.5 12.73828125 C27.72564433 26.50993842 35.25606551 47.76282851 39.640625 65.94921875 C39.8065918 66.62629883 39.97255859 67.30337891 40.14355469 68.00097656 C45.57461473 90.69322932 46.91150412 113.9486162 46.953125 137.19921875 C46.95671021 137.99776276 46.96029541 138.79630676 46.96398926 139.61904907 C47.06429786 180.99474875 39.74796981 230.64323546 9.4296875 261.17578125 C-4.78178901 274.48969082 -21.53409885 279.73351646 -40.6875 279.26171875 C-60.03053472 278.30176665 -75.90080367 269.06562276 -89.046875 255.19921875 C-122.24626323 216.84206842 -124.28537066 156.5214371 -120.8203125 108.36328125 C-119.71109597 94.01387151 -117.91218702 79.91084673 -114.359375 65.94921875 C-114.04705411 64.63307848 -113.73583814 63.31667547 -113.42578125 62 C-109.08965942 44.49358281 -102.01519914 27.8601324 -90.359375 13.94921875 C-89.72128906 13.12164062 -89.08320313 12.2940625 -88.42578125 11.44140625 C-78.93382279 -0.00636218 -64.6730954 -6.27763125 -50.359375 -9.05078125 C-49.57949219 -9.23125 -48.79960937 -9.41171875 -47.99609375 -9.59765625 C-31.73779838 -12.39167442 -13.86172886 -8.92493995 0 0 Z " fill="#37B5FE" transform="translate(473.359375,275.05078125)"/>
<path d="M0 0 C12.21 0 24.42 0 37 0 C37 121.44 37 242.88 37 368 C19.84 368 2.68 368 -15 368 C-15 279.23 -15 190.46 -15 99 C-41.07 99 -67.14 99 -94 99 C-94 87.78 -94 76.56 -94 65 C-90.885625 64.938125 -87.77125 64.87625 -84.5625 64.8125 C-63.35700452 64.04007169 -41.00998936 60.38638247 -24 47 C-22.7625 46.08927734 -22.7625 46.08927734 -21.5 45.16015625 C-8.49109319 33.91964771 -3.99002875 15.96011501 0 0 Z " fill="#000203" transform="translate(173,225)"/>
<path d="M0 0 C4.00088693 -0.24888281 7.99873665 -0.42936435 12.00561523 -0.54931641 C13.36513772 -0.59934038 14.72412913 -0.66739674 16.08178711 -0.75439453 C27.28426972 -1.45377832 27.28426972 -1.45377832 31.28027344 1.93212891 C33.11882466 4.53378536 34.56502505 7.15773608 36 10 C37.0281959 11.62745512 38.07212236 13.24509637 39.1328125 14.8515625 C40.13276746 16.4411013 41.13017949 18.03224275 42.125 19.625 C42.62386719 20.4190625 43.12273438 21.213125 43.63671875 22.03125 C45.09406708 24.35235309 46.54770574 26.67573194 48 29 C48.48823242 29.78084961 48.97646484 30.56169922 49.47949219 31.36621094 C50.65336406 33.24391028 51.82687326 35.12183507 53 37 C56.00203541 34.34634751 57.82076424 31.21248216 59.87109375 27.79296875 C60.23469498 27.18995438 60.5982962 26.58694 60.97291565 25.96565247 C62.13189193 24.04204108 63.28496576 22.11497677 64.4375 20.1875 C65.58747195 18.27136317 66.73870045 16.3559962 67.89137268 14.44148254 C68.9409843 12.69705903 69.98707019 10.95051553 71.03295898 9.20385742 C72.00664429 7.617948 72.00664429 7.617948 73 6 C73.60368408 4.88584717 74.20736816 3.77169434 74.8293457 2.6237793 C77 0 77 0 80.11621094 -0.68115234 C81.90720215 -0.634021 81.90720215 -0.634021 83.734375 -0.5859375 C85.02988281 -0.56660156 86.32539062 -0.54726563 87.66015625 -0.52734375 C89.02346165 -0.477215 90.38674289 -0.42642536 91.75 -0.375 C93.12884865 -0.34489131 94.5077599 -0.31751703 95.88671875 -0.29296875 C99.25939731 -0.22221326 102.62890827 -0.12351802 106 0 C104.68933099 3.4971861 103.15169681 6.60014251 101.19921875 9.78125 C100.64049072 10.69551758 100.0817627 11.60978516 99.50610352 12.55175781 C98.90596436 13.52467773 98.3058252 14.49759766 97.6875 15.5 C96.75732056 17.0173877 96.75732056 17.0173877 95.80834961 18.56542969 C93.87671159 21.71306654 91.93909656 24.85695347 90 28 C89.40026367 28.97388672 88.80052734 29.94777344 88.18261719 30.95117188 C86.47786723 33.7186601 84.77055635 36.4845515 83.0625 39.25 C82.52568604 40.12140625 81.98887207 40.9928125 81.43579102 41.890625 C79.20984912 45.49158702 76.97673099 49.07596466 74.59765625 52.578125 C73.94667969 53.54234375 73.29570313 54.5065625 72.625 55.5 C72.08101562 56.2734375 71.53703125 57.046875 70.9765625 57.84375 C69.69225505 60.67950085 70.20458967 62.02379579 71 65 C71.96810612 67.0869497 71.96810612 67.0869497 73.23046875 69.08984375 C73.69622314 69.86231445 74.16197754 70.63478516 74.6418457 71.43066406 C75.15191162 72.25791992 75.66197754 73.08517578 76.1875 73.9375 C76.72141357 74.8150293 77.25532715 75.69255859 77.80541992 76.59667969 C82.86769982 84.87628062 88.08793665 93.05525362 93.31640625 101.23046875 C97.3191209 107.49223786 101.29385472 113.77121289 105.25 120.0625 C105.89428955 121.07989258 106.5385791 122.09728516 107.20239258 123.14550781 C107.80075928 124.0990918 108.39912598 125.05267578 109.015625 126.03515625 C109.54446289 126.8744165 110.07330078 127.71367676 110.61816406 128.57836914 C111.99629345 130.99350437 113.03272502 133.39631173 114 136 C89.51808616 138.98648396 89.51808616 138.98648396 82.64208984 134.44140625 C78.75159525 130.15277079 76.51444304 124.99293893 74.24804688 119.71630859 C72.17215774 115.19824472 69.41397935 111.14592001 66.6875 107 C65.69344335 105.43299682 64.70244218 103.8640502 63.71484375 102.29296875 C60.48825105 97.18785716 57.24900994 92.09087825 54 87 C51.06928257 90.52294124 48.60061876 94.12379641 46.2421875 98.05078125 C45.5337242 99.22956082 44.82514228 100.4082691 44.11645508 101.58691406 C43.75129791 102.19635864 43.38614075 102.80580322 43.00991821 103.43371582 C41.86226575 105.33358073 40.69507285 107.2200976 39.5222168 109.10449219 C34.62852008 116.99317068 34.62852008 116.99317068 30.71484375 125.40234375 C27.19551815 133.79396017 27.19551815 133.79396017 23 136 C13.13930384 137.87219293 2.92014301 136.97055021 -7 136 C-1.65177662 126.37075965 4.06252156 117.01478357 9.92358398 107.68945312 C15.54957815 98.73682648 21.10089652 89.74038063 26.6328125 80.72949219 C27.261875 79.70500977 27.8909375 78.68052734 28.5390625 77.625 C29.12848633 76.655625 29.71791016 75.68625 30.32519531 74.6875 C31.37935125 72.99593316 32.46828233 71.32508061 33.60449219 69.6875 C36.35981222 65.68573248 36.35981222 65.68573248 37.1015625 60.9609375 C35.68399459 57.15059538 33.66018104 53.95492708 31.375 50.625 C30.37163238 49.11986449 29.37045694 47.61326605 28.37109375 46.10546875 C27.82952637 45.29126465 27.28795898 44.47706055 26.72998047 43.63818359 C23.55056693 38.78964526 20.499879 33.86046692 17.4375 28.9375 C16.16408326 26.89321624 14.89064607 24.84894521 13.6171875 22.8046875 C13.00713867 21.82467773 12.39708984 20.84466797 11.76855469 19.83496094 C10.1254286 17.20105976 8.47498974 14.57196797 6.8203125 11.9453125 C6.34924072 11.19644775 5.87816895 10.44758301 5.39282227 9.67602539 C4.52780984 8.30175258 3.66119672 6.92848556 2.79272461 5.55639648 C0 1.11175631 0 1.11175631 0 0 Z " fill="#000102" transform="translate(591,451)"/>
</svg>
